<svg viewBox="0 0 6 6" xmlns="http://www.w3.org/2000/svg">
  <polygon points="3 0 3 0 0 2" fill="rgb(229, 255, 219)" fill-opacity="0"/>
  <polygon points="3 6 0 2 0 4" fill="rgb(255, 255, 255)" fill-opacity="0"/>
  <polygon points="6 2 6 2 0 4" fill="rgb(92, 206, 255)" fill-opacity="0.32"/>
  <polygon points="3 0 0 2 6 2" fill="rgb(169, 158, 255)" fill-opacity="0.25"/>
  <polygon points="0 4 3 0 6 4" fill="rgb(255, 255, 255)" fill-opacity="0.38"/>
  <polygon points="6 4 0 2 6 2" fill="rgb(255, 255, 255)" fill-opacity="0"/>
  <polygon points="3 0 0 4 6 2" fill="rgb(255, 255, 255)" fill-opacity="0"/>
  <polygon points="3 0 6 4 6 2" fill="rgb(229, 255, 219)" fill-opacity="0"/>
  <polygon points="3 0 6 2 6 2" fill="rgb(255, 255, 255)" fill-opacity="0.38"/>
  <polygon points="6 2 0 2 0 4" fill="rgb(255, 255, 255)" fill-opacity="0"/>
  <polygon points="3 0 3 6 3 6" fill="rgb(255, 255, 255)" fill-opacity="0.38"/>
  <polygon points="6 4 3 6 3 0" fill="rgb(169, 158, 255)" fill-opacity="0.25"/>
</svg>
